<svg width="623" height="905" viewBox="0 0 623 905" fill="none" xmlns="http://www.w3.org/2000/svg">
<g style="mix-blend-mode:overlay" clip-path="url(#clip0_69_50)">
<path opacity="0.5" d="M311.51 544.528L248.816 580.754L248.816 653.187L249.067 653.333L311.51 689.414L374.205 653.187L374.205 580.754L373.954 580.608L311.51 544.528ZM249.797 581.318L311.51 545.675L373.224 581.318L373.224 652.603L311.51 688.245L249.797 652.603L249.797 581.318Z" fill="#D0D9DD"/>
<path opacity="0.5" d="M124.909 724.2L62.2145 760.427L62.2145 832.86L62.4648 833.006L124.909 869.086L187.603 832.86L187.603 760.427L187.353 760.281L124.909 724.2ZM63.1947 760.991L124.909 725.348L186.623 760.991L186.623 832.275L124.909 867.918L63.1947 832.275L63.1947 760.991Z" fill="#D0D9DD"/>
<path opacity="0.5" d="M124.909 508.593L62.2145 544.82L62.2145 617.252L62.4648 617.398L124.909 653.479L187.603 617.252L187.603 544.82L187.353 544.674L124.909 508.593ZM63.1947 545.383L124.909 509.741L186.623 545.383L186.623 616.668L124.909 652.31L63.1947 616.668L63.1947 545.383Z" fill="#D0D9DD"/>
<path opacity="0.5" d="M124.909 221.158L124.658 221.304L62.2145 257.385L62.2145 329.818L62.4648 329.964L124.909 366.044L187.603 329.818L187.603 257.385L187.353 257.239L124.909 221.158ZM63.1947 257.949L124.909 222.306L186.623 257.949L186.623 329.233L124.909 364.876L63.1947 329.233L63.1947 257.949Z" fill="#D0D9DD"/>
<path opacity="0.5" d="M187.102 760.135L124.408 796.362L124.408 868.773L124.658 868.919L187.102 905L249.796 868.773L249.796 796.341L249.546 796.195L187.102 760.114L187.102 760.135ZM125.388 796.925L187.102 761.283L248.816 796.925L248.816 868.21L187.102 903.852L125.388 868.21L125.388 796.925Z" fill="#D0D9DD"/>
<path opacity="0.5" d="M187.102 616.397L124.408 652.623L124.408 725.056L124.658 725.202L187.102 761.283L249.796 725.056L249.796 652.623L249.546 652.477L187.102 616.397ZM125.388 653.187L187.102 617.545L248.816 653.187L248.816 724.472L187.102 760.114L125.388 724.472L125.388 653.187Z" fill="#D0D9DD"/>
<path opacity="0.5" d="M187.102 472.679L124.408 508.906L124.408 581.339L124.658 581.485L187.102 617.565L249.796 581.339L249.796 508.906L249.546 508.76L187.102 472.679ZM125.388 509.47L187.102 473.827L248.816 509.47L248.816 580.754L187.102 616.397L125.388 580.754L125.388 509.47Z" fill="#D0D9DD"/>
<path opacity="0.5" d="M187.102 400.81L124.408 437.037L124.408 509.47L124.658 509.616L187.102 545.696L249.796 509.47L249.796 437.037L249.546 436.891L187.102 400.81ZM125.388 437.6L187.102 401.958L248.816 437.6L248.816 508.885L187.102 544.528L125.388 508.885L125.388 437.6Z" fill="#D0D9DD"/>
<path opacity="0.5" d="M311.51 400.81L248.816 437.037L248.816 509.47L249.067 509.616L311.51 545.696L374.205 509.47L374.205 437.037L373.954 436.891L311.51 400.81ZM249.797 437.6L311.51 401.958L373.224 437.6L373.224 508.885L311.51 544.528L249.797 508.885L249.797 437.6Z" fill="#D0D9DD"/>
<path opacity="0.5" d="M187.102 185.224L186.852 185.37L124.408 221.451L124.408 293.883L124.658 294.029L187.102 330.11L249.796 293.883L249.796 221.451L249.546 221.304L187.102 185.224ZM125.388 222.014L187.102 186.372L248.816 222.014L248.816 293.299L187.102 328.941L125.388 293.299L125.388 222.014Z" fill="#D0D9DD"/>
<path opacity="0.5" d="M62.6942 185.224L62.4439 185.37L-9.4993e-06 221.43L-3.16704e-06 293.862L0.250273 294.008L62.6942 330.089L125.388 293.862L125.388 221.43L125.138 221.283L62.6942 185.203L62.6942 185.224ZM1.0011 222.014L62.715 186.372L124.429 222.014L124.429 293.299L62.715 328.941L1.0011 293.299L1.0011 222.014Z" fill="#D0D9DD"/>
<path opacity="0.5" d="M249.296 724.2L186.602 760.427L186.602 832.86L186.852 833.006L249.296 869.086L311.99 832.86L311.99 760.427L311.74 760.281L249.296 724.2ZM187.582 760.991L249.296 725.348L311.01 760.991L311.01 832.275L249.296 867.918L187.582 832.275L187.582 760.991Z" fill="#D0D9DD"/>
<path opacity="0.5" d="M249.296 364.876L186.602 401.102L186.602 473.535L186.852 473.681L249.296 509.762L311.99 473.535L311.99 401.102L311.74 400.956L249.296 364.876ZM187.582 401.666L249.296 366.023L311.01 401.666L311.01 472.951L249.296 508.593L187.582 472.951L187.582 401.666Z" fill="#D0D9DD"/>
<path opacity="0.5" d="M311.51 688.266L248.816 724.493L248.816 796.925L249.067 797.071L311.51 833.152L374.205 796.925L374.205 724.493L373.954 724.347L311.51 688.266ZM249.797 725.056L311.51 689.414L373.224 725.056L373.224 796.341L311.51 831.983L249.797 796.341L249.797 725.056Z" fill="#D0D9DD"/>
<path opacity="0.5" d="M373.704 580.462L311.01 616.689L311.01 689.121L311.26 689.268L373.704 725.348L436.398 689.121L436.398 616.689L436.148 616.543L373.704 580.462ZM311.99 617.252L373.704 581.61L435.418 617.252L435.418 688.537L373.704 724.18L311.99 688.537L311.99 617.252Z" fill="#D0D9DD"/>
<path opacity="0.5" d="M560.306 688.266L497.612 724.493L497.612 796.925L497.862 797.071L560.306 833.152L623 796.925L623 724.493L622.75 724.347L560.306 688.266ZM498.592 725.056L560.306 689.414L622.02 725.056L622.02 796.341L560.306 831.983L498.592 796.341L498.592 725.056Z" fill="#D0D9DD"/>
<path opacity="0.5" d="M124.909 5.55105L124.658 5.69708L62.2145 41.7777L62.2145 114.21L62.4648 114.356L124.909 150.437L125.159 150.291L187.603 114.21L187.603 41.7777L187.353 41.6316L124.909 5.55105ZM63.1947 42.3411L124.909 6.69877L186.623 42.3411L186.623 113.626L124.909 149.268L63.1947 113.626L63.1947 42.3411Z" fill="#D0D9DD"/>
<path opacity="0.5" d="M187.102 112.958L186.852 113.104L124.408 149.185L124.408 221.617L124.658 221.764L187.102 257.844L187.353 257.698L249.796 221.617L249.796 149.185L249.546 149.039L187.102 112.958ZM125.388 149.748L187.102 114.106L248.816 149.748L248.816 221.033L187.102 256.676L125.388 221.033L125.388 149.748Z" fill="#D0D9DD"/>
<path opacity="0.5" d="M187.102 328.941L124.408 365.168L124.408 437.6L124.658 437.746L187.102 473.827L249.796 437.6L249.796 365.168L249.546 365.022L187.102 328.941ZM125.388 365.731L187.102 330.089L248.816 365.731L248.816 437.016L187.102 472.659L125.388 437.016L125.388 365.731Z" fill="#D0D9DD"/>
<path d="M373.704 437.016L310.76 473.368L310.76 546.092L311.135 546.301L373.704 582.444L436.649 546.092L436.649 473.368L436.273 473.159L373.704 437.016ZM312.24 474.244L373.704 438.748L435.168 474.244L435.168 545.237L373.704 580.733L312.24 545.237L312.24 474.244Z" fill="white"/>
<path d="M124.909 364.584L61.9642 400.936L61.9642 473.66L62.3396 473.869L124.909 510.012L187.853 473.66L187.853 400.936L187.478 400.727L124.909 364.584ZM63.445 401.812L124.909 366.316L186.372 401.812L186.372 472.805L124.909 508.301L63.445 472.805L63.445 401.812Z" fill="white"/>
<path d="M124.909 77.1071L124.533 77.3158L61.9641 113.459L61.9641 186.184L62.3395 186.392L124.909 222.536L125.284 222.327L187.853 186.184L187.853 113.459L187.478 113.25L124.909 77.1071ZM63.4449 114.335L124.909 78.8392L186.372 114.335L186.372 185.328L124.909 220.825L63.4449 185.328L63.4449 114.335Z" fill="white"/>
<path d="M124.909 580.17L61.9642 616.522L61.9642 689.247L62.3396 689.455L124.909 725.599L187.853 689.247L187.853 616.522L187.478 616.313L124.909 580.17ZM63.445 617.398L124.909 581.902L186.372 617.398L186.372 688.391L124.909 723.887L63.445 688.391L63.445 617.398Z" fill="white"/>
<path d="M187.102 687.974L124.158 724.326L124.158 797.05L124.533 797.259L187.102 833.402L250.047 797.05L250.047 724.326L249.671 724.117L187.102 687.974ZM125.639 725.202L187.102 689.706L248.566 725.202L248.566 796.195L187.102 831.691L125.639 796.195L125.639 725.202Z" fill="white"/>
<path d="M249.296 508.321L186.351 544.673L186.351 617.398L186.727 617.607L249.296 653.75L312.24 617.398L312.24 544.673L311.865 544.465L249.296 508.321ZM187.832 545.55L249.296 510.054L310.76 545.55L310.76 616.543L249.296 652.039L187.832 616.543L187.832 545.55Z" fill="white"/>
<path d="M249.296 292.735L248.92 292.944L186.351 329.087L186.351 401.812L186.727 402.02L249.296 438.164L312.24 401.812L312.24 329.087L311.865 328.878L249.296 292.735ZM187.832 329.963L249.296 294.467L310.76 329.963L310.76 400.956L249.296 436.452L187.832 400.956L187.832 329.963Z" fill="white"/>
<path d="M249.296 148.997L248.92 149.205L186.351 185.349L186.351 258.073L186.727 258.282L249.296 294.425L249.671 294.217L312.24 258.073L312.24 185.349L311.865 185.14L249.296 148.997ZM187.832 186.225L249.296 150.729L310.76 186.225L310.76 257.218L249.296 292.714L187.832 257.218L187.832 186.225Z" fill="white"/>
<path d="M311.51 616.105L248.566 652.457L248.566 725.181L248.941 725.39L311.511 761.533L374.455 725.181L374.455 652.457L374.08 652.248L311.51 616.105ZM250.047 653.333L311.51 617.837L372.974 653.333L372.974 724.326L311.511 759.822L250.047 724.326L250.047 653.333Z" fill="white"/>
<path d="M435.898 687.974L372.953 724.326L372.953 797.05L373.329 797.259L435.898 833.402L498.842 797.05L498.842 724.326L498.467 724.117L435.898 687.974ZM374.434 725.202L435.898 689.706L497.361 725.202L497.361 796.195L435.898 831.691L374.434 796.195L374.434 725.202Z" fill="white"/>
<path d="M498.112 723.908L435.168 760.26L435.168 832.985L435.543 833.194L498.112 869.337L561.057 832.985L561.057 760.26L560.681 760.052L498.112 723.908ZM436.649 761.137L498.112 725.64L559.576 761.137L559.576 832.129L498.112 867.626L436.649 832.129L436.649 761.137Z" fill="white"/>
<path opacity="0.5" d="M129.372 7.74199L129.372 2.58761L124.909 7.23738e-06L120.425 2.58761L120.425 7.74199L124.909 10.3296L129.372 7.74199Z" fill="#D0D9DD"/>
<path opacity="0.5" d="M191.566 835.134L191.566 829.98L187.102 827.413L182.639 829.98L182.639 835.134L187.102 837.722L191.566 835.134Z" fill="#D0D9DD"/>
<path opacity="0.5" d="M188.938 761.825L188.938 759.717L187.102 758.653L185.267 759.717L185.267 761.825L187.102 762.889L188.938 761.825Z" fill="#D0D9DD"/>
<path opacity="0.5" d="M191.753 619.861L191.753 614.477L187.102 611.806L182.451 614.477L182.451 619.861L187.102 622.553L191.753 619.861Z" fill="#D0D9DD"/>
<path opacity="0.5" d="M191.899 548.138L191.899 542.608L187.102 539.853L182.305 542.608L182.305 548.138L187.102 550.913L191.899 548.138Z" fill="#D0D9DD"/>
<path opacity="0.5" d="M131.687 441.231L131.687 433.385L124.909 429.462L118.109 433.385L118.109 441.231L124.909 445.154L131.687 441.231Z" fill="#D0D9DD"/>
<path opacity="0.5" d="M69.4934 405.714L69.4934 397.868L62.6942 393.945L55.9159 397.868L55.9159 405.714L62.6942 409.637L69.4934 405.714Z" fill="#D0D9DD"/>
<path opacity="0.5" d="M130.498 727.977L130.498 721.508L124.909 718.253L119.298 721.508L119.298 727.977L124.909 731.212L130.498 727.977Z" fill="#D0D9DD"/>
<path opacity="0.5" d="M252.466 870.317L252.466 866.665L249.296 864.85L246.147 866.665L246.147 870.317L249.296 872.133L252.466 870.317Z" fill="#D0D9DD"/>
<path opacity="0.5" d="M315.348 834.779L315.348 830.334L311.511 828.122L307.652 830.334L307.652 834.779L311.511 837.012L315.348 834.779Z" fill="#D0D9DD"/>
<path opacity="0.5" d="M315.244 475.747L315.244 471.427L311.51 469.257L307.756 471.427L307.756 475.747L311.51 477.917L315.244 475.747Z" fill="#D0D9DD"/>
<path opacity="0.5" d="M314.847 403.711L314.847 399.85L311.51 397.93L308.153 399.85L308.153 403.711L311.51 405.651L314.847 403.711Z" fill="#D0D9DD"/>
<path opacity="0.5" d="M317.851 261.851L317.851 254.526L311.51 250.874L305.149 254.526L305.149 261.851L311.51 265.523L317.851 261.851Z" fill="#D0D9DD"/>
<path opacity="0.5" d="M251.048 797.76L251.048 795.735L249.296 794.713L247.544 795.735L247.544 797.76L249.296 798.761L251.048 797.76Z" fill="#D0D9DD"/>
<path opacity="0.5" d="M252.591 511.64L252.591 507.842L249.296 505.943L246.001 507.842L246.001 511.64L249.296 513.56L252.591 511.64Z" fill="#D0D9DD"/>
<path opacity="0.5" d="M250.86 367.15L250.86 365.335L249.296 364.437L247.732 365.335L247.732 367.15L249.296 368.068L250.86 367.15Z" fill="#D0D9DD"/>
<path opacity="0.5" d="M253.822 225.352L253.822 220.135L249.296 217.527L244.791 220.135L244.791 225.352L249.296 227.961L253.822 225.352Z" fill="#D0D9DD"/>
<path opacity="0.5" d="M438.484 762.263L438.484 759.279L435.898 757.777L433.312 759.279L433.312 762.263L435.898 763.766L438.484 762.263Z" fill="#D0D9DD"/>
<path opacity="0.5" d="M440.152 691.438L440.152 686.513L435.898 684.05L431.643 686.513L431.643 691.438L435.898 693.9L440.152 691.438Z" fill="#D0D9DD"/>
<path opacity="0.5" d="M440.528 619.84L440.528 614.497L435.898 611.847L431.288 614.497L431.288 619.84L435.898 622.511L440.528 619.84Z" fill="#D0D9DD"/>
<path opacity="0.5" d="M379.106 799.867L379.106 793.628L373.704 790.498L368.302 793.628L368.302 799.867L373.704 802.977L379.106 799.867Z" fill="#D0D9DD"/>
<path opacity="0.5" d="M378.126 727.56L378.126 722.427L373.704 719.881L369.283 722.427L369.283 727.56L373.704 730.106L378.126 727.56Z" fill="#D0D9DD"/>
<path opacity="0.5" d="M376.979 439.896L376.979 436.098L373.704 434.22L370.43 436.098L370.43 439.896L373.704 441.774L376.979 439.896Z" fill="#D0D9DD"/>
<path opacity="0.5" d="M501.262 870.317L501.262 866.665L498.112 864.85L494.963 866.665L494.963 870.317L498.112 872.133L501.262 870.317Z" fill="#D0D9DD"/>
<path opacity="0.5" d="M565.979 692.252L565.979 685.699L560.306 682.402L554.633 685.699L554.633 692.252L560.306 695.528L565.979 692.252Z" fill="#D0D9DD"/>
<path opacity="0.5" d="M504.453 728.666L504.453 721.321L498.112 717.648L491.751 721.321L491.751 728.666L498.112 732.339L504.453 728.666Z" fill="#D0D9DD"/>
<path opacity="0.5" d="M68.8259 117.466L68.8259 110.391L62.6941 106.865L56.5624 110.391L56.5624 117.466L62.6941 121.013L68.8259 117.466Z" fill="#D0D9DD"/>
<path d="M189.334 259.492L189.334 256.905L187.102 255.59L184.85 256.905L184.85 259.492L187.102 260.786L189.334 259.492Z" fill="white"/>
<path d="M191.566 476.164L191.566 471.01L187.102 468.422L182.639 471.01L182.639 476.164L187.102 478.752L191.566 476.164Z" fill="white"/>
<path d="M253.759 440.23L253.759 435.075L249.296 432.488L244.833 435.075L244.833 440.23L249.296 442.817L253.759 440.23Z" fill="white"/>
<path d="M67.1575 548.012L67.1575 542.858L62.6942 540.27L58.231 542.858L58.231 548.012L62.6942 550.6L67.1575 548.012Z" fill="white"/>
<path d="M193.881 333.907L193.881 326.061L187.102 322.138L180.303 326.061L180.303 333.907L187.102 337.831L193.881 333.907Z" fill="white"/>
<path d="M190.69 188.479L190.69 184.326L187.102 182.239L183.515 184.326L183.515 188.479L187.102 190.545L190.69 188.479Z" fill="white"/>
<path d="M314.118 546.885L314.118 543.859L311.51 542.357L308.883 543.859L308.883 546.885L311.51 548.409L314.118 546.885Z" fill="white"/>
<path d="M129.435 871.11L129.435 865.873L124.909 863.243L120.362 865.873L120.362 871.11L124.909 873.74L129.435 871.11Z" fill="white"/>
<path d="M67.2409 835.176L67.2409 829.938L62.6942 827.329L58.1683 829.938L58.1683 835.176L62.6942 837.805L67.2409 835.176Z" fill="white"/>
<path d="M128.121 296.366L128.121 292.631L124.909 290.774L121.676 292.631L121.676 296.366L124.909 298.224L128.121 296.366Z" fill="white"/>
<path d="M314.118 762.284L314.118 759.258L311.51 757.756L308.883 759.258L308.883 762.284L311.51 763.787L314.118 762.284Z" fill="white"/>
<path d="M314.931 690.958L314.931 686.993L311.51 685.01L308.069 686.993L308.069 690.958L311.51 692.919L314.931 690.958Z" fill="white"/>
<path d="M316.036 332.614L316.036 327.376L311.51 324.746L306.964 327.376L306.964 332.614L311.51 335.222L316.036 332.614Z" fill="white"/>
<path d="M255.595 728.624L255.595 721.362L249.296 717.71L242.997 721.362L242.997 728.624L249.296 732.276L255.595 728.624Z" fill="white"/>
<path d="M253.989 655.941L253.989 650.536L249.296 647.823L244.624 650.536L244.624 655.941L249.296 658.654L253.989 655.941Z" fill="white"/>
<path d="M67.3868 691.667L67.3868 686.262L62.6942 683.549L58.0223 686.262L58.0223 691.667L62.6942 694.38L67.3868 691.667Z" fill="white"/>
<path d="M254.385 584.427L254.385 578.563L249.296 575.621L244.228 578.563L244.228 584.427L249.296 587.369L254.385 584.427Z" fill="white"/>
<path d="M252.383 296.283L252.383 292.714L249.296 290.941L246.23 292.714L246.23 296.283L249.296 298.057L252.383 296.283Z" fill="white"/>
<path d="M252.8 153.025L252.8 148.976L249.296 146.973L245.813 148.976L245.813 153.025L249.296 155.028L252.8 153.025Z" fill="white"/>
<path d="M440.361 835.134L440.361 829.98L435.898 827.413L431.434 829.98L431.434 835.134L435.898 837.722L440.361 835.134Z" fill="white"/>
<path d="M438.129 546.656L438.129 544.089L435.898 542.816L433.687 544.089L433.687 546.656L435.898 547.929L438.129 546.656Z" fill="white"/>
<path d="M378.897 656.254L378.897 650.244L373.704 647.239L368.511 650.244L368.511 656.254L373.704 659.238L378.897 656.254Z" fill="white"/>
<path d="M376.123 582.904L376.123 580.086L373.704 578.688L371.285 580.086L371.285 582.904L373.704 584.302L376.123 582.904Z" fill="white"/>
<path d="M563.643 762.702L563.643 758.841L560.306 756.921L556.969 758.841L556.969 762.702L560.306 764.622L563.643 762.702Z" fill="white"/>
</g>
<defs>
<clipPath id="clip0_69_50">
<rect width="623" height="905" fill="white" transform="matrix(1 -8.74228e-08 -8.74228e-08 -1 0 905)"/>
</clipPath>
</defs>
</svg>
