<svg width="1461" height="403" viewBox="0 0 1461 403" fill="none" xmlns="http://www.w3.org/2000/svg">
<mask id="mask0_69_715" style="mask-type:alpha" maskUnits="userSpaceOnUse" x="0" y="0" width="1461" height="403">
<path d="M1461 0V243.321L1425.49 283.874H671.863L577.698 403H0V112.718L90.0308 0L1425.49 0H1461Z" fill="white" fill-opacity="0.05"/>
</mask>
<g mask="url(#mask0_69_715)">
<g opacity="0.5" filter="url(#filter0_f_69_715)">
<circle cx="-222" cy="204" r="427" fill="#FF8126"/>
</g>
<path d="M671.634 283.374H671.391L671.241 283.564L577.258 402.5H-123.5V112.893L-33.7594 0.5H1582.5V243.133L1547.27 283.374H671.634Z" stroke="white" stroke-opacity="0.3"/>
<path d="M671.634 283.374H671.391L671.241 283.564L577.258 402.5H-123.5V112.893L-33.7594 0.5H1582.5V243.133L1547.27 283.374H671.634Z" stroke="url(#paint0_linear_69_715)"/>
<path d="M671.634 283.374H671.391L671.241 283.564L577.258 402.5H-123.5V112.893L-33.7594 0.5H1582.5V243.133L1547.27 283.374H671.634Z" stroke="url(#paint1_linear_69_715)"/>
</g>
<defs>
<filter id="filter0_f_69_715" x="-1193" y="-767" width="1942" height="1942" filterUnits="userSpaceOnUse" color-interpolation-filters="sRGB">
<feFlood flood-opacity="0" result="BackgroundImageFix"/>
<feBlend mode="normal" in="SourceGraphic" in2="BackgroundImageFix" result="shape"/>
<feGaussianBlur stdDeviation="272" result="effect1_foregroundBlur_69_715"/>
</filter>
<linearGradient id="paint0_linear_69_715" x1="-159.979" y1="-48.6508" x2="185.572" y2="577.926" gradientUnits="userSpaceOnUse">
<stop stop-color="white"/>
<stop offset="1" stop-color="white" stop-opacity="0"/>
</linearGradient>
<linearGradient id="paint1_linear_69_715" x1="1709.43" y1="498.546" x2="1467.69" y2="167.899" gradientUnits="userSpaceOnUse">
<stop stop-color="white"/>
<stop offset="1" stop-color="white" stop-opacity="0"/>
</linearGradient>
</defs>
</svg>
