<svg width="181" height="181" viewBox="0 0 181 181" fill="none" xmlns="http://www.w3.org/2000/svg">
<path d="M5.38 2.69C5.38 4.17 4.18 5.38 2.69 5.38C1.2 5.38 0 4.18 0 2.69C0 1.2 1.21 0 2.69 0C4.17 0 5.38 1.21 5.38 2.69Z" fill="url(#paint0_linear_69_989)"/>
<path d="M46.6 0C45.11 0 43.91 1.21 43.91 2.69C43.91 4.17 45.11 5.38 46.6 5.38C48.09 5.38 49.29 4.17 49.29 2.69C49.29 1.21 48.09 0 46.6 0Z" fill="url(#paint1_linear_69_989)"/>
<path d="M90.51 0C89.03 0 87.82 1.21 87.82 2.69C87.82 4.17 89.03 5.38 90.51 5.38C91.99 5.38 93.21 4.17 93.21 2.69C93.21 1.21 92 0 90.51 0Z" fill="url(#paint2_linear_69_989)"/>
<path d="M134.41 0C132.92 0 131.72 1.21 131.72 2.69C131.72 4.17 132.92 5.38 134.41 5.38C135.9 5.38 137.11 4.17 137.11 2.69C137.11 1.21 135.9 0 134.41 0Z" fill="url(#paint3_linear_69_989)"/>
<path d="M178.32 5.39C179.81 5.39 181.01 4.18 181.01 2.7C181.01 1.22 179.8 0.01 178.32 0.01C176.84 0.01 175.63 1.22 175.63 2.7C175.63 4.18 176.84 5.39 178.32 5.39Z" fill="url(#paint4_linear_69_989)"/>
<path d="M2.69 43.9C1.21 43.9 0 45.11 0 46.59C0 48.07 1.21 49.28 2.69 49.28C4.17 49.28 5.38 48.07 5.38 46.59C5.38 45.11 4.18 43.9 2.69 43.9Z" fill="url(#paint5_linear_69_989)"/>
<path d="M46.6 43.9C45.11 43.9 43.91 45.11 43.91 46.59C43.91 48.07 45.11 49.28 46.6 49.28C48.09 49.28 49.29 48.07 49.29 46.59C49.29 45.11 48.09 43.9 46.6 43.9Z" fill="url(#paint6_linear_69_989)"/>
<path d="M90.51 43.9C89.03 43.9 87.82 45.11 87.82 46.59C87.82 48.07 89.03 49.28 90.51 49.28C91.99 49.28 93.21 48.07 93.21 46.59C93.21 45.11 92 43.9 90.51 43.9Z" fill="url(#paint7_linear_69_989)"/>
<path d="M134.41 43.9C132.92 43.9 131.72 45.11 131.72 46.59C131.72 48.07 132.92 49.28 134.41 49.28C135.9 49.28 137.11 48.07 137.11 46.59C137.11 45.11 135.9 43.9 134.41 43.9Z" fill="url(#paint8_linear_69_989)"/>
<path d="M178.32 43.9C176.83 43.9 175.63 45.11 175.63 46.59C175.63 48.07 176.84 49.28 178.32 49.28C179.8 49.28 181.01 48.07 181.01 46.59C181.01 45.11 179.8 43.9 178.32 43.9Z" fill="url(#paint9_linear_69_989)"/>
<path d="M2.69 87.81C1.21 87.81 0 89.01 0 90.5C0 91.99 1.21 93.19 2.69 93.19C4.17 93.19 5.38 91.99 5.38 90.5C5.38 89.01 4.18 87.81 2.69 87.81Z" fill="url(#paint10_linear_69_989)"/>
<path d="M46.6 87.81C45.11 87.81 43.91 89.01 43.91 90.5C43.91 91.99 45.11 93.19 46.6 93.19C48.09 93.19 49.29 91.99 49.29 90.5C49.29 89.01 48.09 87.81 46.6 87.81Z" fill="url(#paint11_linear_69_989)"/>
<path d="M90.51 87.81C89.03 87.81 87.82 89.01 87.82 90.5C87.82 91.99 89.03 93.19 90.51 93.19C91.99 93.19 93.21 91.99 93.21 90.5C93.21 89.01 92 87.81 90.51 87.81Z" fill="url(#paint12_linear_69_989)"/>
<path d="M134.41 87.81C132.92 87.81 131.72 89.01 131.72 90.5C131.72 91.99 132.92 93.19 134.41 93.19C135.9 93.19 137.11 91.99 137.11 90.5C137.11 89.01 135.9 87.81 134.41 87.81Z" fill="url(#paint13_linear_69_989)"/>
<path d="M178.32 87.81C176.83 87.81 175.63 89.01 175.63 90.5C175.63 91.99 176.84 93.19 178.32 93.19C179.8 93.19 181.01 91.99 181.01 90.5C181.01 89.01 179.8 87.81 178.32 87.81Z" fill="url(#paint14_linear_69_989)"/>
<path d="M2.69 131.72C1.21 131.72 0 132.93 0 134.41C0 135.89 1.21 137.1 2.69 137.1C4.17 137.1 5.38 135.89 5.38 134.41C5.38 132.93 4.18 131.72 2.69 131.72Z" fill="url(#paint15_linear_69_989)"/>
<path d="M46.6 131.72C45.11 131.72 43.91 132.93 43.91 134.41C43.91 135.89 45.11 137.1 46.6 137.1C48.09 137.1 49.29 135.89 49.29 134.41C49.29 132.93 48.09 131.72 46.6 131.72Z" fill="url(#paint16_linear_69_989)"/>
<path d="M90.51 131.72C89.03 131.72 87.82 132.93 87.82 134.41C87.82 135.89 89.03 137.1 90.51 137.1C91.99 137.1 93.21 135.89 93.21 134.41C93.21 132.93 92 131.72 90.51 131.72Z" fill="url(#paint17_linear_69_989)"/>
<path d="M134.41 131.72C132.92 131.72 131.72 132.93 131.72 134.41C131.72 135.89 132.92 137.1 134.41 137.1C135.9 137.1 137.11 135.89 137.11 134.41C137.11 132.93 135.9 131.72 134.41 131.72Z" fill="url(#paint18_linear_69_989)"/>
<path d="M178.32 131.72C176.83 131.72 175.63 132.93 175.63 134.41C175.63 135.89 176.84 137.1 178.32 137.1C179.8 137.1 181.01 135.89 181.01 134.41C181.01 132.93 179.8 131.72 178.32 131.72Z" fill="url(#paint19_linear_69_989)"/>
<path d="M2.69 175.62C1.21 175.62 0 176.83 0 178.32C0 179.81 1.21 181.01 2.69 181.01C4.17 181.01 5.38 179.81 5.38 178.32C5.38 176.83 4.18 175.62 2.69 175.62Z" fill="url(#paint20_linear_69_989)"/>
<path d="M46.6 175.62C45.11 175.62 43.91 176.83 43.91 178.32C43.91 179.81 45.11 181.01 46.6 181.01C48.09 181.01 49.29 179.81 49.29 178.32C49.29 176.83 48.09 175.62 46.6 175.62Z" fill="url(#paint21_linear_69_989)"/>
<path d="M90.51 175.62C89.03 175.62 87.82 176.83 87.82 178.32C87.82 179.81 89.03 181.01 90.51 181.01C91.99 181.01 93.21 179.81 93.21 178.32C93.21 176.83 92 175.62 90.51 175.62Z" fill="url(#paint22_linear_69_989)"/>
<path d="M134.41 175.62C132.92 175.62 131.72 176.83 131.72 178.32C131.72 179.81 132.92 181.01 134.41 181.01C135.9 181.01 137.11 179.81 137.11 178.32C137.11 176.83 135.9 175.62 134.41 175.62Z" fill="url(#paint23_linear_69_989)"/>
<path d="M178.32 175.62C176.83 175.62 175.63 176.83 175.63 178.32C175.63 179.81 176.84 181.01 178.32 181.01C179.8 181.01 181.01 179.81 181.01 178.32C181.01 176.83 179.8 175.62 178.32 175.62Z" fill="url(#paint24_linear_69_989)"/>
<defs>
<linearGradient id="paint0_linear_69_989" x1="90.505" y1="0" x2="90.505" y2="181.01" gradientUnits="userSpaceOnUse">
<stop stop-color="white"/>
<stop offset="1" stop-color="#DAC8FF"/>
</linearGradient>
<linearGradient id="paint1_linear_69_989" x1="90.505" y1="0" x2="90.505" y2="181.01" gradientUnits="userSpaceOnUse">
<stop stop-color="white"/>
<stop offset="1" stop-color="#DAC8FF"/>
</linearGradient>
<linearGradient id="paint2_linear_69_989" x1="90.505" y1="0" x2="90.505" y2="181.01" gradientUnits="userSpaceOnUse">
<stop stop-color="white"/>
<stop offset="1" stop-color="#DAC8FF"/>
</linearGradient>
<linearGradient id="paint3_linear_69_989" x1="90.505" y1="0" x2="90.505" y2="181.01" gradientUnits="userSpaceOnUse">
<stop stop-color="white"/>
<stop offset="1" stop-color="#DAC8FF"/>
</linearGradient>
<linearGradient id="paint4_linear_69_989" x1="90.505" y1="0" x2="90.505" y2="181.01" gradientUnits="userSpaceOnUse">
<stop stop-color="white"/>
<stop offset="1" stop-color="#DAC8FF"/>
</linearGradient>
<linearGradient id="paint5_linear_69_989" x1="90.505" y1="0" x2="90.505" y2="181.01" gradientUnits="userSpaceOnUse">
<stop stop-color="white"/>
<stop offset="1" stop-color="#DAC8FF"/>
</linearGradient>
<linearGradient id="paint6_linear_69_989" x1="90.505" y1="0" x2="90.505" y2="181.01" gradientUnits="userSpaceOnUse">
<stop stop-color="white"/>
<stop offset="1" stop-color="#DAC8FF"/>
</linearGradient>
<linearGradient id="paint7_linear_69_989" x1="90.505" y1="0" x2="90.505" y2="181.01" gradientUnits="userSpaceOnUse">
<stop stop-color="white"/>
<stop offset="1" stop-color="#DAC8FF"/>
</linearGradient>
<linearGradient id="paint8_linear_69_989" x1="90.505" y1="0" x2="90.505" y2="181.01" gradientUnits="userSpaceOnUse">
<stop stop-color="white"/>
<stop offset="1" stop-color="#DAC8FF"/>
</linearGradient>
<linearGradient id="paint9_linear_69_989" x1="90.505" y1="0" x2="90.505" y2="181.01" gradientUnits="userSpaceOnUse">
<stop stop-color="white"/>
<stop offset="1" stop-color="#DAC8FF"/>
</linearGradient>
<linearGradient id="paint10_linear_69_989" x1="90.505" y1="0" x2="90.505" y2="181.01" gradientUnits="userSpaceOnUse">
<stop stop-color="white"/>
<stop offset="1" stop-color="#DAC8FF"/>
</linearGradient>
<linearGradient id="paint11_linear_69_989" x1="90.505" y1="0" x2="90.505" y2="181.01" gradientUnits="userSpaceOnUse">
<stop stop-color="white"/>
<stop offset="1" stop-color="#DAC8FF"/>
</linearGradient>
<linearGradient id="paint12_linear_69_989" x1="90.505" y1="0" x2="90.505" y2="181.01" gradientUnits="userSpaceOnUse">
<stop stop-color="white"/>
<stop offset="1" stop-color="#DAC8FF"/>
</linearGradient>
<linearGradient id="paint13_linear_69_989" x1="90.505" y1="0" x2="90.505" y2="181.01" gradientUnits="userSpaceOnUse">
<stop stop-color="white"/>
<stop offset="1" stop-color="#DAC8FF"/>
</linearGradient>
<linearGradient id="paint14_linear_69_989" x1="90.505" y1="0" x2="90.505" y2="181.01" gradientUnits="userSpaceOnUse">
<stop stop-color="white"/>
<stop offset="1" stop-color="#DAC8FF"/>
</linearGradient>
<linearGradient id="paint15_linear_69_989" x1="90.505" y1="0" x2="90.505" y2="181.01" gradientUnits="userSpaceOnUse">
<stop stop-color="white"/>
<stop offset="1" stop-color="#DAC8FF"/>
</linearGradient>
<linearGradient id="paint16_linear_69_989" x1="90.505" y1="0" x2="90.505" y2="181.01" gradientUnits="userSpaceOnUse">
<stop stop-color="white"/>
<stop offset="1" stop-color="#DAC8FF"/>
</linearGradient>
<linearGradient id="paint17_linear_69_989" x1="90.505" y1="0" x2="90.505" y2="181.01" gradientUnits="userSpaceOnUse">
<stop stop-color="white"/>
<stop offset="1" stop-color="#DAC8FF"/>
</linearGradient>
<linearGradient id="paint18_linear_69_989" x1="90.505" y1="0" x2="90.505" y2="181.01" gradientUnits="userSpaceOnUse">
<stop stop-color="white"/>
<stop offset="1" stop-color="#DAC8FF"/>
</linearGradient>
<linearGradient id="paint19_linear_69_989" x1="90.505" y1="0" x2="90.505" y2="181.01" gradientUnits="userSpaceOnUse">
<stop stop-color="white"/>
<stop offset="1" stop-color="#DAC8FF"/>
</linearGradient>
<linearGradient id="paint20_linear_69_989" x1="90.505" y1="0" x2="90.505" y2="181.01" gradientUnits="userSpaceOnUse">
<stop stop-color="white"/>
<stop offset="1" stop-color="#DAC8FF"/>
</linearGradient>
<linearGradient id="paint21_linear_69_989" x1="90.505" y1="0" x2="90.505" y2="181.01" gradientUnits="userSpaceOnUse">
<stop stop-color="white"/>
<stop offset="1" stop-color="#DAC8FF"/>
</linearGradient>
<linearGradient id="paint22_linear_69_989" x1="90.505" y1="0" x2="90.505" y2="181.01" gradientUnits="userSpaceOnUse">
<stop stop-color="white"/>
<stop offset="1" stop-color="#DAC8FF"/>
</linearGradient>
<linearGradient id="paint23_linear_69_989" x1="90.505" y1="0" x2="90.505" y2="181.01" gradientUnits="userSpaceOnUse">
<stop stop-color="white"/>
<stop offset="1" stop-color="#DAC8FF"/>
</linearGradient>
<linearGradient id="paint24_linear_69_989" x1="90.505" y1="0" x2="90.505" y2="181.01" gradientUnits="userSpaceOnUse">
<stop stop-color="white"/>
<stop offset="1" stop-color="#DAC8FF"/>
</linearGradient>
</defs>
</svg>
