<svg width="65" height="64" viewBox="0 0 65 64" fill="none" xmlns="http://www.w3.org/2000/svg">
<path d="M63.7817 39.4029L52.0046 32.3C51.6794 32.1035 51.3067 31.9997 50.9267 31.9997C50.5468 31.9997 50.1741 32.1035 49.8489 32.3L45.4979 34.925L37.4339 29.547L45.6473 24.5923C45.9553 24.4052 46.2102 24.1422 46.3876 23.8285C46.565 23.5148 46.659 23.1608 46.6606 22.8004V9.20051C46.6599 8.83948 46.5664 8.48469 46.3891 8.17016C46.2119 7.85564 45.9568 7.59191 45.6483 7.40427L33.8713 0.300343C33.5461 0.103857 33.1734 0 32.7934 0C32.4135 0 32.0407 0.103857 31.7155 0.300343L19.9395 7.40427C19.6311 7.59191 19.376 7.85564 19.1988 8.17016C19.0215 8.48469 18.928 8.83948 18.9273 9.20051V22.8004C18.928 23.1614 19.0215 23.5162 19.1988 23.8307C19.376 24.1452 19.6311 24.409 19.9395 24.5966L28.1529 29.5512L20.0889 34.925L15.7369 32.3C15.4117 32.1035 15.039 31.9997 14.659 31.9997C14.2791 31.9997 13.9063 32.1035 13.5811 32.3L1.80515 39.4039C1.49704 39.5919 1.24229 39.8557 1.06525 40.1702C0.888208 40.4846 0.794797 40.8393 0.793945 41.2002L0.793945 54.8C0.79493 55.1612 0.888503 55.516 1.06572 55.8307C1.24295 56.1453 1.49789 56.4093 1.80621 56.5973L13.5833 63.7002C13.9086 63.8963 14.2813 64 14.6611 64C15.041 64 15.4137 63.8963 15.739 63.7002L27.5161 56.5963C27.8242 56.4083 28.0789 56.1445 28.256 55.83C28.433 55.5156 28.5264 55.1609 28.5273 54.8V50.1334H37.0606V54.8C37.0616 55.1612 37.1552 55.516 37.3324 55.8307C37.5096 56.1453 37.7646 56.4093 38.0729 56.5973L49.8499 63.7002C50.1753 63.8963 50.5479 64 50.9278 64C51.3077 64 51.6804 63.8963 52.0057 63.7002L63.7827 56.5963C64.0909 56.4083 64.3456 56.1445 64.5226 55.83C64.6997 55.5156 64.7931 55.1609 64.7939 54.8V41.2002C64.793 40.839 64.6994 40.4842 64.5222 40.1695C64.345 39.8549 64.09 39.5909 63.7817 39.4029ZM50.9038 34.1272L61.9587 40.7959L50.9145 47.4465L39.8926 40.7959L50.9038 34.1272ZM33.8606 29.2419V17.2954C33.8755 17.2868 33.8937 17.2836 33.9086 17.2751L44.5273 10.8645L44.5443 22.7694L33.8606 29.2419ZM32.7705 2.12752L43.8254 8.79625L32.7811 15.4479L21.7593 8.79625L32.7705 2.12752ZM21.0435 10.856L31.6878 17.2804C31.7006 17.2879 31.7145 17.29 31.7273 17.2964V29.2174L21.0606 22.8004L21.0435 10.856ZM14.6371 34.1272L25.6921 40.7959L14.6478 47.4465L3.62595 40.7959L14.6371 34.1272ZM2.92728 54.8L2.91128 42.8535L13.5545 49.2801C13.5673 49.2876 13.5811 49.2897 13.5939 49.2971V61.217L2.92728 54.8ZM15.7273 61.2416V49.295C15.7422 49.2865 15.7603 49.2843 15.7753 49.2747L26.3939 42.8642L26.411 54.7702L15.7273 61.2416ZM28.5273 48.0001V41.2002C28.5263 40.839 28.4327 40.4842 28.2555 40.1695C28.0783 39.8549 27.8233 39.5909 27.515 39.4029L22.1091 36.1432L30.1731 30.7693L31.7166 31.7005C32.0419 31.8967 32.4146 32.0003 32.7945 32.0003C33.1744 32.0003 33.547 31.8967 33.8723 31.7005L35.4147 30.7693L43.4787 36.1432L38.0718 39.4039C37.7637 39.5919 37.509 39.8557 37.3319 40.1702C37.1549 40.4846 37.0615 40.8393 37.0606 41.2002V48.0001H28.5273ZM39.1939 54.8L39.1779 42.8535L49.8211 49.2801C49.834 49.2876 49.8478 49.2897 49.8606 49.2971V61.217L39.1939 54.8ZM51.9939 61.2416V49.295C52.0089 49.2865 52.027 49.2843 52.0419 49.2747L62.6606 42.8642L62.6777 54.7702L51.9939 61.2416Z" fill="#FF6B00"/>
</svg>
