<svg width="65" height="64" viewBox="0 0 65 64" fill="none" xmlns="http://www.w3.org/2000/svg">
<path d="M63.0808 39.4029L51.3037 32.3C50.9785 32.1035 50.6058 31.9997 50.2258 31.9997C49.8459 31.9997 49.4731 32.1035 49.148 32.3L44.797 34.925L36.733 29.547L44.9464 24.5923C45.2544 24.4052 45.5093 24.1422 45.6867 23.8285C45.8641 23.5148 45.9581 23.1608 45.9597 22.8004V9.20051C45.9589 8.83948 45.8654 8.48469 45.6882 8.17016C45.5109 7.85564 45.2559 7.59191 44.9474 7.40427L33.1704 0.300343C32.8452 0.103857 32.4724 0 32.0925 0C31.7125 0 31.3398 0.103857 31.0146 0.300343L19.2386 7.40427C18.9302 7.59191 18.6751 7.85564 18.4978 8.17016C18.3206 8.48469 18.2271 8.83948 18.2264 9.20051V22.8004C18.2271 23.1614 18.3206 23.5162 18.4978 23.8307C18.6751 24.1452 18.9302 24.409 19.2386 24.5966L27.452 29.5512L19.388 34.925L15.036 32.3C14.7108 32.1035 14.338 31.9997 13.9581 31.9997C13.5781 31.9997 13.2054 32.1035 12.8802 32.3L1.10422 39.4039C0.796111 39.5919 0.54136 39.8557 0.36432 40.1702C0.18728 40.4846 0.093869 40.8393 0.0930176 41.2002L0.0930176 54.8C0.0940026 55.1612 0.187576 55.516 0.364797 55.8307C0.542018 56.1453 0.796966 56.4093 1.10528 56.5973L12.8824 63.7002C13.2077 63.8963 13.5803 64 13.9602 64C14.3401 64 14.7128 63.8963 15.0381 63.7002L26.8152 56.5963C27.1233 56.4083 27.378 56.1445 27.555 55.83C27.7321 55.5156 27.8255 55.1609 27.8264 54.8V50.1334H36.3597V54.8C36.3607 55.1612 36.4542 55.516 36.6315 55.8307C36.8087 56.1453 37.0636 56.4093 37.372 56.5973L49.149 63.7002C49.4743 63.8963 49.847 64 50.2269 64C50.6068 64 50.9794 63.8963 51.3048 63.7002L63.0818 56.5963C63.3899 56.4083 63.6447 56.1445 63.8217 55.83C63.9988 55.5156 64.0922 55.1609 64.093 54.8V41.2002C64.092 40.839 63.9985 40.4842 63.8212 40.1695C63.644 39.8549 63.3891 39.5909 63.0808 39.4029ZM50.2029 34.1272L61.2578 40.7959L50.2136 47.4465L39.1917 40.7959L50.2029 34.1272ZM33.1597 29.2419V17.2954C33.1746 17.2868 33.1928 17.2836 33.2077 17.2751L43.8264 10.8645L43.8434 22.7694L33.1597 29.2419ZM32.0696 2.12752L43.1245 8.79625L32.0802 15.4479L21.0584 8.79625L32.0696 2.12752ZM20.3426 10.856L30.9869 17.2804C30.9997 17.2879 31.0136 17.29 31.0264 17.2964V29.2174L20.3597 22.8004L20.3426 10.856ZM13.9362 34.1272L24.9912 40.7959L13.9469 47.4465L2.92502 40.7959L13.9362 34.1272ZM2.22635 54.8L2.21035 42.8535L12.8536 49.2801C12.8664 49.2876 12.8802 49.2897 12.893 49.2971V61.217L2.22635 54.8ZM15.0264 61.2416V49.295C15.0413 49.2865 15.0594 49.2843 15.0744 49.2747L25.693 42.8642L25.7101 54.7702L15.0264 61.2416ZM27.8264 48.0001V41.2002C27.8254 40.839 27.7318 40.4842 27.5546 40.1695C27.3774 39.8549 27.1224 39.5909 26.8141 39.4029L21.4082 36.1432L29.4722 30.7693L31.0157 31.7005C31.341 31.8967 31.7137 32.0003 32.0936 32.0003C32.4734 32.0003 32.8461 31.8967 33.1714 31.7005L34.7138 30.7693L42.7778 36.1432L37.3709 39.4039C37.0628 39.5919 36.808 39.8557 36.631 40.1702C36.4539 40.4846 36.3605 40.8393 36.3597 41.2002V48.0001H27.8264ZM38.493 54.8L38.477 42.8535L49.1202 49.2801C49.133 49.2876 49.1469 49.2897 49.1597 49.2971V61.217L38.493 54.8ZM51.293 61.2416V49.295C51.308 49.2865 51.3261 49.2843 51.341 49.2747L61.9597 42.8642L61.9768 54.7702L51.293 61.2416Z" fill="#FF6B00"/>
</svg>
