<svg width="1459" height="403" viewBox="0 0 1459 403" fill="none" xmlns="http://www.w3.org/2000/svg">
<g filter="url(#filter0_b_69_714)">
<path d="M1459 8.70183e-05V243.321L1423.51 283.874H671.403L577.302 403L0 403V112.718L89.9692 0L1459 8.70183e-05Z" fill="white" fill-opacity="0.05"/>
<path d="M671.403 283.374H671.161L671.011 283.564L577.06 402.5L0.5 402.5V112.893L90.2098 0.5L1458.5 0.500087V243.133L1423.29 283.374H671.403Z" stroke="url(#paint0_linear_69_714)"/>
<path d="M671.403 283.374H671.161L671.011 283.564L577.06 402.5L0.5 402.5V112.893L90.2098 0.5L1458.5 0.500087V243.133L1423.29 283.374H671.403Z" stroke="url(#paint1_linear_69_714)"/>
</g>
<defs>
<filter id="filter0_b_69_714" x="-23" y="-23" width="1505" height="449" filterUnits="userSpaceOnUse" color-interpolation-filters="sRGB">
<feFlood flood-opacity="0" result="BackgroundImageFix"/>
<feGaussianBlur in="BackgroundImageFix" stdDeviation="11.5"/>
<feComposite in2="SourceAlpha" operator="in" result="effect1_backgroundBlur_69_714"/>
<feBlend mode="normal" in="SourceGraphic" in2="effect1_backgroundBlur_69_714" result="shape"/>
</filter>
<linearGradient id="paint0_linear_69_714" x1="-30.7519" y1="-48.6508" x2="341.514" y2="528.297" gradientUnits="userSpaceOnUse">
<stop stop-color="white"/>
<stop offset="1" stop-color="white" stop-opacity="0"/>
</linearGradient>
<linearGradient id="paint1_linear_69_714" x1="1567.06" y1="498.546" x2="1316.44" y2="205.543" gradientUnits="userSpaceOnUse">
<stop stop-color="white"/>
<stop offset="1" stop-color="white" stop-opacity="0"/>
</linearGradient>
</defs>
</svg>
