<svg width="65" height="64" viewBox="0 0 65 64" fill="none" xmlns="http://www.w3.org/2000/svg">
<path d="M63.4316 39.4029L51.6545 32.3C51.3293 32.1035 50.9566 31.9997 50.5766 31.9997C50.1967 31.9997 49.824 32.1035 49.4988 32.3L45.1479 34.925L37.0838 29.547L45.2972 24.5923C45.6052 24.4052 45.8601 24.1422 46.0375 23.8285C46.2149 23.5148 46.3089 23.1608 46.3105 22.8004V9.20051C46.3098 8.83948 46.2163 8.48469 46.039 8.17016C45.8618 7.85564 45.6067 7.59191 45.2982 7.40427L33.5212 0.300343C33.196 0.103857 32.8233 0 32.4433 0C32.0634 0 31.6906 0.103857 31.3654 0.300343L19.5894 7.40427C19.281 7.59191 19.0259 7.85564 18.8487 8.17016C18.6714 8.48469 18.5779 8.83948 18.5772 9.20051V22.8004C18.5779 23.1614 18.6714 23.5162 18.8487 23.8307C19.0259 24.1452 19.281 24.409 19.5894 24.5966L27.8028 29.5512L19.7388 34.925L15.3868 32.3C15.0616 32.1035 14.6889 31.9997 14.3089 31.9997C13.929 31.9997 13.5562 32.1035 13.231 32.3L1.45505 39.4039C1.14694 39.5919 0.89219 39.8557 0.71515 40.1702C0.53811 40.4846 0.444699 40.8393 0.443848 41.2002L0.443848 54.8C0.444833 55.1612 0.538406 55.516 0.715627 55.8307C0.892848 56.1453 1.1478 56.4093 1.45611 56.5973L13.2332 63.7002C13.5585 63.8963 13.9312 64 14.311 64C14.6909 64 15.0636 63.8963 15.3889 63.7002L27.166 56.5963C27.4741 56.4083 27.7288 56.1445 27.9059 55.83C28.0829 55.5156 28.1763 55.1609 28.1772 54.8V50.1334H36.7105V54.8C36.7115 55.1612 36.8051 55.516 36.9823 55.8307C37.1595 56.1453 37.4145 56.4093 37.7228 56.5973L49.4999 63.7002C49.8252 63.8963 50.1978 64 50.5777 64C50.9576 64 51.3303 63.8963 51.6556 63.7002L63.4326 56.5963C63.7408 56.4083 63.9955 56.1445 64.1726 55.83C64.3496 55.5156 64.443 55.1609 64.4438 54.8V41.2002C64.4429 40.839 64.3493 40.4842 64.1721 40.1695C63.9949 39.8549 63.7399 39.5909 63.4316 39.4029ZM50.5537 34.1272L61.6087 40.7959L50.5644 47.4465L39.5425 40.7959L50.5537 34.1272ZM33.5105 29.2419V17.2954C33.5254 17.2868 33.5436 17.2836 33.5585 17.2751L44.1772 10.8645L44.1942 22.7694L33.5105 29.2419ZM32.4204 2.12752L43.4753 8.79625L32.431 15.4479L21.4092 8.79625L32.4204 2.12752ZM20.6934 10.856L31.3377 17.2804C31.3505 17.2879 31.3644 17.29 31.3772 17.2964V29.2174L20.7105 22.8004L20.6934 10.856ZM14.287 34.1272L25.342 40.7959L14.2977 47.4465L3.27585 40.7959L14.287 34.1272ZM2.57718 54.8L2.56118 42.8535L13.2044 49.2801C13.2172 49.2876 13.231 49.2897 13.2438 49.2971V61.217L2.57718 54.8ZM15.3772 61.2416V49.295C15.3921 49.2865 15.4102 49.2843 15.4252 49.2747L26.0438 42.8642L26.0609 54.7702L15.3772 61.2416ZM28.1772 48.0001V41.2002C28.1762 40.839 28.0826 40.4842 27.9054 40.1695C27.7282 39.8549 27.4732 39.5909 27.1649 39.4029L21.759 36.1432L29.823 30.7693L31.3665 31.7005C31.6918 31.8967 32.0645 32.0003 32.4444 32.0003C32.8243 32.0003 33.1969 31.8967 33.5222 31.7005L35.0647 30.7693L43.1286 36.1432L37.7217 39.4039C37.4136 39.5919 37.1589 39.8557 36.9818 40.1702C36.8048 40.4846 36.7114 40.8393 36.7105 41.2002V48.0001H28.1772ZM38.8438 54.8L38.8279 42.8535L49.4711 49.2801C49.4839 49.2876 49.4977 49.2897 49.5105 49.2971V61.217L38.8438 54.8ZM51.6439 61.2416V49.295C51.6588 49.2865 51.6769 49.2843 51.6918 49.2747L62.3105 42.8642L62.3276 54.7702L51.6439 61.2416Z" fill="#FF6B00"/>
</svg>
